<svg xmlns="http://www.w3.org/2000/svg" xmlns:xlink="http://www.w3.org/1999/xlink" contentStyleType="text/css" height="152px" preserveAspectRatio="none" style="width:1453px;height:152px;background:#FFFFFF;" version="1.1" viewBox="0 0 1453 152" width="1453px" zoomAndPan="magnify"><defs/><g><!--entity client--><g id="elem_client"><ellipse cx="153.9951" cy="49.7659" fill="#F1F1F1" rx="8" ry="8" style="stroke:#181818;stroke-width:0.5;"/><path d="M153.9951,57.7659 L153.9951,84.7659 M140.9951,65.7659 L166.9951,65.7659 M153.9951,84.7659 L140.9951,99.7659 M153.9951,84.7659 L166.9951,99.7659 " fill="none" style="stroke:#181818;stroke-width:0.5;"/><text fill="#000000" font-family="sans-serif" font-size="14" lengthAdjust="spacing" textLength="40.5303" x="133.73" y="114.261">Client</text></g><!--entity conversionSim--><g id="elem_conversionSim"><rect fill="#F1F1F1" height="68.8906" rx="2.5" ry="2.5" style="stroke:#181818;stroke-width:0.5;" width="139.6289" x="383.18" y="44.9759"/><text fill="#000000" font-family="sans-serif" font-size="14" lengthAdjust="spacing" textLength="94.6709" x="405.659" y="67.971">Conversion +</text><text fill="#000000" font-family="sans-serif" font-size="14" lengthAdjust="spacing" textLength="119.6289" x="393.18" y="84.2679">Simulation Script</text><text fill="#000000" font-family="sans-serif" font-size="14" lengthAdjust="spacing" textLength="71.9893" x="416.9998" y="100.5648">&lt;Python&gt;</text></g><!--entity dataset2--><g id="elem_dataset2"><rect fill="#F1F1F1" height="68.8906" rx="2.5" ry="2.5" style="stroke:#181818;stroke-width:0.5;" width="139.1367" x="209.43" y="44.9759"/><text fill="#000000" font-family="sans-serif" font-size="14" lengthAdjust="spacing" textLength="68.1816" x="244.9075" y="67.971">Dataset 2</text><text fill="#000000" font-family="sans-serif" font-size="14" lengthAdjust="spacing" textLength="119.1367" x="219.43" y="84.2679">(Live-Simulation)</text><text fill="#000000" font-family="sans-serif" font-size="14" lengthAdjust="spacing" textLength="57.9688" x="250.014" y="100.5648">&lt;JSON&gt;</text></g><!--entity kafka--><g id="elem_kafka"><rect fill="#F1F1F1" height="32.2969" rx="2.5" ry="2.5" style="stroke:#181818;stroke-width:0.5;" width="55.375" x="701.31" y="65.2659"/><rect fill="#F1F1F1" height="32.2969" rx="2.5" ry="2.5" style="stroke:#181818;stroke-width:0.5;" width="55.375" x="697.31" y="61.2659"/><text fill="#000000" font-family="sans-serif" font-size="14" lengthAdjust="spacing" textLength="39.375" x="705.31" y="82.261">Kafka</text></g><!--entity hdfs--><g id="elem_hdfs"><rect fill="#F1F1F1" height="36.2969" rx="2.5" ry="2.5" style="stroke:#181818;stroke-width:0.5;" width="58.2471" x="1224.87" y="61.2659"/><text fill="#000000" font-family="sans-serif" font-size="14" lengthAdjust="spacing" textLength="38.2471" x="1234.87" y="84.261">HDFS</text></g><!--entity ml--><g id="elem_ml"><rect fill="#F1F1F1" height="48.5938" rx="2.5" ry="2.5" style="stroke:#181818;stroke-width:0.5;" width="100.6904" x="561.65" y="57.1159"/><rect fill="#F1F1F1" height="48.5938" rx="2.5" ry="2.5" style="stroke:#181818;stroke-width:0.5;" width="100.6904" x="557.65" y="53.1159"/><text fill="#000000" font-family="sans-serif" font-size="14" lengthAdjust="spacing" textLength="84.6904" x="565.65" y="74.111">ML Backend</text><text fill="#000000" font-family="sans-serif" font-size="14" lengthAdjust="spacing" textLength="71.9893" x="572.0006" y="90.4079">&lt;Python&gt;</text></g><!--entity mlPrep--><g id="elem_mlPrep"><rect fill="#F1F1F1" height="68.8906" rx="2.5" ry="2.5" style="stroke:#181818;stroke-width:0.5;" width="140.8389" x="791.58" y="44.9759"/><text fill="#000000" font-family="sans-serif" font-size="14" lengthAdjust="spacing" textLength="120.8389" x="801.58" y="67.971">ML Prep Backend</text><text fill="#000000" font-family="sans-serif" font-size="14" lengthAdjust="spacing" textLength="78.9072" x="822.5458" y="84.2679">(Processor)</text><text fill="#000000" font-family="sans-serif" font-size="14" lengthAdjust="spacing" textLength="71.9893" x="826.0048" y="100.5648">&lt;Python&gt;</text></g><!--entity dataset1--><g id="elem_dataset1"><rect fill="#F1F1F1" height="68.8906" rx="2.5" ry="2.5" style="stroke:#181818;stroke-width:0.5;" width="89.5215" x="967.23" y="44.9759"/><text fill="#000000" font-family="sans-serif" font-size="14" lengthAdjust="spacing" textLength="68.1816" x="977.8999" y="67.971">Dataset 1</text><text fill="#000000" font-family="sans-serif" font-size="14" lengthAdjust="spacing" textLength="69.5215" x="977.23" y="84.2679">(UN Data)</text><text fill="#000000" font-family="sans-serif" font-size="14" lengthAdjust="spacing" textLength="57.9688" x="983.0064" y="100.5648">&lt;JSON&gt;</text></g><!--entity conversion--><g id="elem_conversion"><rect fill="#F1F1F1" height="68.8906" rx="2.5" ry="2.5" style="stroke:#181818;stroke-width:0.5;" width="98.4902" x="1091.75" y="44.9759"/><text fill="#000000" font-family="sans-serif" font-size="14" lengthAdjust="spacing" textLength="78.4902" x="1101.75" y="67.971">Conversion</text><text fill="#000000" font-family="sans-serif" font-size="14" lengthAdjust="spacing" textLength="40.6055" x="1120.6924" y="84.2679">Script</text><text fill="#000000" font-family="sans-serif" font-size="14" lengthAdjust="spacing" textLength="71.9893" x="1105.0005" y="100.5648">&lt;Python&gt;</text></g><!--entity streamlit--><g id="elem_streamlit"><rect fill="#F1F1F1" height="68.8906" rx="2.5" ry="2.5" style="stroke:#181818;stroke-width:0.5;" width="91.9893" x="7" y="44.9759"/><text fill="#000000" font-family="sans-serif" font-size="14" lengthAdjust="spacing" textLength="64.2305" x="20.8794" y="67.971">Streamlit</text><text fill="#000000" font-family="sans-serif" font-size="14" lengthAdjust="spacing" textLength="63.1094" x="21.4399" y="84.2679">Frontend</text><text fill="#000000" font-family="sans-serif" font-size="14" lengthAdjust="spacing" textLength="71.9893" x="17" y="100.5648">&lt;Python&gt;</text></g><!--entity model--><g id="elem_model"><rect fill="#F1F1F1" height="52.5938" rx="2.5" ry="2.5" style="stroke:#181818;stroke-width:0.5;stroke-dasharray:5.0,5.0;" width="129.0947" x="1318.45" y="53.1159"/><text fill="#000000" font-family="sans-serif" font-size="14" lengthAdjust="spacing" textLength="66.3633" x="1349.8157" y="76.111">ML Model</text><text fill="#000000" font-family="sans-serif" font-size="14" lengthAdjust="spacing" textLength="109.0947" x="1328.45" y="92.4079">&lt;Deployment&gt;</text></g><!--reverse link streamlit to client--><g id="link_streamlit_client"><path d="M105.36,79.5659 C117.28,79.5659 123.52,79.5659 133.38,79.5659 " fill="none" id="streamlit-backto-client" style="stroke:#181818;stroke-width:1.0;"/><polygon fill="#181818" points="99.36,79.5659,108.36,83.5659,104.36,79.5659,108.36,75.5659,99.36,79.5659" style="stroke:#181818;stroke-width:1.0;"/></g><!--link dataset2 to conversionSim--><g id="link_dataset2_conversionSim"><path d="M349.01,79.5659 C360.16,79.5659 365.69,79.5659 376.83,79.5659 " fill="none" id="dataset2-to-conversionSim" style="stroke:#181818;stroke-width:1.0;"/><polygon fill="#181818" points="382.83,79.5659,373.83,75.5659,377.83,79.5659,373.83,83.5659,382.83,79.5659" style="stroke:#181818;stroke-width:1.0;"/><text fill="#000000" font-family="sans-serif" font-size="13" lengthAdjust="spacing" textLength="32.043" x="349.92" y="92.6328">JSON</text></g><!--link streamlit to hdfs--><g id="link_streamlit_hdfs"><path d="M52.99,114.1259 C52.99,128.3659 52.99,141.5659 52.99,141.5659 C52.99,141.5659 1263.7,141.5659 1263.7,141.5659 C1263.7,141.5659 1263.7,122.3659 1263.7,104.0659 " fill="none" id="streamlit-to-hdfs" style="stroke:#181818;stroke-width:1.0;"/><polygon fill="#181818" points="1263.7,98.0659,1259.7,107.0659,1263.7,103.0659,1267.7,107.0659,1263.7,98.0659" style="stroke:#181818;stroke-width:1.0;"/><text fill="#000000" font-family="sans-serif" font-size="13" lengthAdjust="spacing" textLength="63.0703" x="598.7789" y="122.6328">SparkSQL</text><text fill="#000000" font-family="sans-serif" font-size="13" lengthAdjust="spacing" textLength="71.8682" x="594.38" y="137.7656">Predictions</text></g><!--link streamlit to kafka--><g id="link_streamlit_kafka"><path d="M52.99,44.6859 C52.99,33.3259 52.99,23.5659 52.99,23.5659 C52.99,23.5659 736.89,23.5659 736.89,23.5659 C736.89,23.5659 736.89,38.5759 736.89,54.8159 " fill="none" id="streamlit-to-kafka" style="stroke:#181818;stroke-width:1.0;"/><polygon fill="#181818" points="736.89,60.8159,740.89,51.8159,736.89,55.8159,732.89,51.8159,736.89,60.8159" style="stroke:#181818;stroke-width:1.0;"/><text fill="#000000" font-family="sans-serif" font-size="13" lengthAdjust="spacing" textLength="70.6431" x="332.01" y="19.6328">Subscribes</text></g><!--link conversionSim to kafka--><g id="link_conversionSim_kafka"><path d="M523.08,49.5659 C601.32,49.5659 717.1,49.5659 717.1,49.5659 C717.1,49.5659 717.1,48.8759 717.1,55.0259 " fill="none" id="conversionSim-to-kafka" style="stroke:#181818;stroke-width:1.0;"/><polygon fill="#181818" points="717.1,61.0259,721.1,52.0259,717.1,56.0259,713.1,52.0259,717.1,61.0259" style="stroke:#181818;stroke-width:1.0;"/><text fill="#000000" font-family="sans-serif" font-size="13" lengthAdjust="spacing" textLength="32.043" x="592.82" y="45.6328">JSON</text></g><!--link kafka to hdfs--><g id="link_kafka_hdfs"><path d="M726.99,97.9959 C726.99,111.9159 726.99,128.5659 726.99,128.5659 C726.99,128.5659 1244.29,128.5659 1244.29,128.5659 C1244.29,128.5659 1244.29,117.9159 1244.29,103.9959 " fill="none" id="kafka-to-hdfs" style="stroke:#181818;stroke-width:1.0;"/><polygon fill="#181818" points="1244.29,97.9959,1240.29,106.9959,1244.29,102.9959,1248.29,106.9959,1244.29,97.9959" style="stroke:#181818;stroke-width:1.0;"/><text fill="#000000" font-family="sans-serif" font-size="13" lengthAdjust="spacing" textLength="32.043" x="952.64" y="141.6328">JSON</text></g><!--link kafka to mlPrep--><g id="link_kafka_mlPrep"><path d="M756.96,79.5659 C767.21,79.5659 773.16,79.5659 785.25,79.5659 " fill="none" id="kafka-to-mlPrep" style="stroke:#181818;stroke-width:1.0;"/><polygon fill="#181818" points="791.25,79.5659,782.25,75.5659,786.25,79.5659,782.25,83.5659,791.25,79.5659" style="stroke:#181818;stroke-width:1.0;"/><text fill="#000000" font-family="sans-serif" font-size="13" lengthAdjust="spacing" textLength="32.043" x="758.1" y="92.6328">JSON</text></g><!--link ml to kafka--><g id="link_ml_kafka"><path d="M662.68,79.5659 C674.44,79.5659 680.53,79.5659 691,79.5659 " fill="none" id="ml-to-kafka" style="stroke:#181818;stroke-width:1.0;"/><polygon fill="#181818" points="697,79.5659,688,75.5659,692,79.5659,688,83.5659,697,79.5659" style="stroke:#181818;stroke-width:1.0;"/><text fill="#000000" font-family="sans-serif" font-size="13" lengthAdjust="spacing" textLength="32.043" x="663.84" y="92.6328">JSON</text></g><!--link dataset1 to conversion--><g id="link_dataset1_conversion"><path d="M1057.11,79.5659 C1068.16,79.5659 1074.04,79.5659 1085.28,79.5659 " fill="none" id="dataset1-to-conversion" style="stroke:#181818;stroke-width:1.0;"/><polygon fill="#181818" points="1091.28,79.5659,1082.28,75.5659,1086.28,79.5659,1082.28,83.5659,1091.28,79.5659" style="stroke:#181818;stroke-width:1.0;"/><text fill="#000000" font-family="sans-serif" font-size="13" lengthAdjust="spacing" textLength="32.043" x="1058.2" y="92.6328">JSON</text></g><!--link conversion to hdfs--><g id="link_conversion_hdfs"><path d="M1190.56,79.5659 C1202.18,79.5659 1208.2,79.5659 1218.61,79.5659 " fill="none" id="conversion-to-hdfs" style="stroke:#181818;stroke-width:1.0;"/><polygon fill="#181818" points="1224.61,79.5659,1215.61,75.5659,1219.61,79.5659,1215.61,83.5659,1224.61,79.5659" style="stroke:#181818;stroke-width:1.0;"/><text fill="#000000" font-family="sans-serif" font-size="13" lengthAdjust="spacing" textLength="32.043" x="1191.58" y="92.6328">JSON</text></g><!--SRC=[VL9DRnen4BtxLuouaAY2YaYzH6Yb1eIYbAHKszwuEEiXMEkrLxP9Ywh-zuwz7tW9OWyhU-RD6xzvivS2mNcqQFonHZPt_gWmOrF1tHu5_6L0trfgp4C2liJxocY_CCfOU52yADa_Dl_S5hfIwffRNe6Yei09nlgzIH82T_oW_4_yuxyg-QOhr1uA-g5DK8MfQgCfsZIsM7YktnGoNdXgl50ob747HJon7W-ZXT7lQ9qq6ZvjTIwhW-8-tFB2ojflzNnpf2VfR1JhUpGXKvebzzoXXxkjlbdBTvoSc6w9uod__j8mY0PuHyLAqJi9u63qZUzA7lDbE2NCZyjL7k9xiNF3ckSrFD10KOkpHrOgVHd1DXRh4_PcOqs1pXbx-w4m82_9cb7PhnS8rujoPfT7IWEzFiMqBFSMUQKaeLUMbkQZCDSXMEzmrFTi12h2Bh5MvXXMfDKJuZ2VD_kPPOmr_iD4uSvFieImimKeEZ3v7e9OrYC387Xn3pdjNfd_M6yrJKt8nfOXC9f9oCEhepcyOd0muKuWiKaydneCOuqvRRHIvxMTWjbGGPiz1SxesHZQ3iByrkTjnX7QTEylxUpQPHctXuwN0bTc1UceEiRff74gS4N7fh5Vo5yLDOPKrg4UAFiF]--></g></svg>