<svg xmlns="http://www.w3.org/2000/svg" xmlns:xlink="http://www.w3.org/1999/xlink" contentStyleType="text/css" height="508px" preserveAspectRatio="none" style="width:609px;height:508px;background:#FFFFFF;" version="1.1" viewBox="0 0 609 508" width="609px" zoomAndPan="magnify"><defs/><g><!--entity client--><g id="elem_client"><ellipse cx="314.5651" cy="16.79" fill="#F1F1F1" rx="8" ry="8" style="stroke:#181818;stroke-width:0.5;"/><path d="M314.5651,24.79 L314.5651,51.79 M301.5651,32.79 L327.5651,32.79 M314.5651,51.79 L301.5651,66.79 M314.5651,51.79 L327.5651,66.79 " fill="none" style="stroke:#181818;stroke-width:0.5;"/><text fill="#000000" font-family="sans-serif" font-size="14" lengthAdjust="spacing" textLength="40.5303" x="294.3" y="81.2851">Client</text></g><!--entity conversionSim--><g id="elem_conversionSim"><rect fill="#F1F1F1" height="78.8906" rx="2.5" ry="2.5" style="stroke:#181818;stroke-width:0.5;" width="159.6289" x="200.75" y="145.89"/><rect fill="#F1F1F1" height="10" style="stroke:#181818;stroke-width:0.5;" width="15" x="340.3789" y="150.89"/><rect fill="#F1F1F1" height="2" style="stroke:#181818;stroke-width:0.5;" width="4" x="338.3789" y="152.89"/><rect fill="#F1F1F1" height="2" style="stroke:#181818;stroke-width:0.5;" width="4" x="338.3789" y="156.89"/><text fill="#000000" font-family="sans-serif" font-size="14" lengthAdjust="spacing" textLength="94.6709" x="228.229" y="178.8851">Conversion +</text><text fill="#000000" font-family="sans-serif" font-size="14" lengthAdjust="spacing" textLength="119.6289" x="215.75" y="195.182">Simulation Script</text><text fill="#000000" font-family="sans-serif" font-size="14" lengthAdjust="spacing" textLength="71.9893" x="239.5698" y="211.4789">&lt;Python&gt;</text></g><!--entity dataset2--><g id="elem_dataset2"><rect fill="#F1F1F1" height="78.8906" rx="2.5" ry="2.5" style="stroke:#181818;stroke-width:0.5;" width="159.1367" x="7" y="145.89"/><rect fill="#F1F1F1" height="10" style="stroke:#181818;stroke-width:0.5;" width="15" x="146.1367" y="150.89"/><rect fill="#F1F1F1" height="2" style="stroke:#181818;stroke-width:0.5;" width="4" x="144.1367" y="152.89"/><rect fill="#F1F1F1" height="2" style="stroke:#181818;stroke-width:0.5;" width="4" x="144.1367" y="156.89"/><text fill="#000000" font-family="sans-serif" font-size="14" lengthAdjust="spacing" textLength="68.1816" x="47.4775" y="178.8851">Dataset 2</text><text fill="#000000" font-family="sans-serif" font-size="14" lengthAdjust="spacing" textLength="119.1367" x="22" y="195.182">(Live-Simulation)</text><text fill="#000000" font-family="sans-serif" font-size="14" lengthAdjust="spacing" textLength="57.9688" x="52.584" y="211.4789">&lt;JSON&gt;</text></g><!--entity kafka--><g id="elem_kafka"><rect fill="#F1F1F1" height="32.2969" rx="2.5" ry="2.5" style="stroke:#181818;stroke-width:0.5;" width="55.375" x="399.88" y="171.19"/><rect fill="#F1F1F1" height="32.2969" rx="2.5" ry="2.5" style="stroke:#181818;stroke-width:0.5;" width="55.375" x="395.88" y="167.19"/><text fill="#000000" font-family="sans-serif" font-size="14" lengthAdjust="spacing" textLength="39.375" x="403.88" y="188.1851">Kafka</text></g><!--entity hdfs--><g id="elem_hdfs"><rect fill="#F1F1F1" height="46.2969" rx="2.5" ry="2.5" style="stroke:#181818;stroke-width:0.5;" width="78.2471" x="386.44" y="301.08"/><rect fill="#F1F1F1" height="10" style="stroke:#181818;stroke-width:0.5;" width="15" x="444.6871" y="306.08"/><rect fill="#F1F1F1" height="2" style="stroke:#181818;stroke-width:0.5;" width="4" x="442.6871" y="308.08"/><rect fill="#F1F1F1" height="2" style="stroke:#181818;stroke-width:0.5;" width="4" x="442.6871" y="312.08"/><text fill="#000000" font-family="sans-serif" font-size="14" lengthAdjust="spacing" textLength="38.2471" x="401.44" y="334.0751">HDFS</text></g><!--entity ml--><g id="elem_ml"><rect fill="#F1F1F1" height="48.5938" rx="2.5" ry="2.5" style="stroke:#181818;stroke-width:0.5;" width="100.6904" x="503.22" y="301.93"/><rect fill="#F1F1F1" height="48.5938" rx="2.5" ry="2.5" style="stroke:#181818;stroke-width:0.5;" width="100.6904" x="499.22" y="297.93"/><text fill="#000000" font-family="sans-serif" font-size="14" lengthAdjust="spacing" textLength="84.6904" x="507.22" y="318.9251">ML Backend</text><text fill="#000000" font-family="sans-serif" font-size="14" lengthAdjust="spacing" textLength="71.9893" x="513.5706" y="335.222">&lt;Python&gt;</text></g><!--entity mlPrep--><g id="elem_mlPrep"><rect fill="#F1F1F1" height="78.8906" rx="2.5" ry="2.5" style="stroke:#181818;stroke-width:0.5;" width="160.8389" x="190.15" y="284.78"/><rect fill="#F1F1F1" height="10" style="stroke:#181818;stroke-width:0.5;" width="15" x="330.9889" y="289.78"/><rect fill="#F1F1F1" height="2" style="stroke:#181818;stroke-width:0.5;" width="4" x="328.9889" y="291.78"/><rect fill="#F1F1F1" height="2" style="stroke:#181818;stroke-width:0.5;" width="4" x="328.9889" y="295.78"/><text fill="#000000" font-family="sans-serif" font-size="14" lengthAdjust="spacing" textLength="120.8389" x="205.15" y="317.7751">ML Prep Backend</text><text fill="#000000" font-family="sans-serif" font-size="14" lengthAdjust="spacing" textLength="78.9072" x="226.1158" y="334.072">(Processor)</text><text fill="#000000" font-family="sans-serif" font-size="14" lengthAdjust="spacing" textLength="71.9893" x="229.5748" y="350.3689">&lt;Python&gt;</text></g><!--entity dataset1--><g id="elem_dataset1"><rect fill="#F1F1F1" height="78.8906" rx="2.5" ry="2.5" style="stroke:#181818;stroke-width:0.5;" width="109.5215" x="221.81" y="423.67"/><rect fill="#F1F1F1" height="10" style="stroke:#181818;stroke-width:0.5;" width="15" x="311.3315" y="428.67"/><rect fill="#F1F1F1" height="2" style="stroke:#181818;stroke-width:0.5;" width="4" x="309.3315" y="430.67"/><rect fill="#F1F1F1" height="2" style="stroke:#181818;stroke-width:0.5;" width="4" x="309.3315" y="434.67"/><text fill="#000000" font-family="sans-serif" font-size="14" lengthAdjust="spacing" textLength="68.1816" x="237.4799" y="456.6651">Dataset 1</text><text fill="#000000" font-family="sans-serif" font-size="14" lengthAdjust="spacing" textLength="69.5215" x="236.81" y="472.962">(UN Data)</text><text fill="#000000" font-family="sans-serif" font-size="14" lengthAdjust="spacing" textLength="57.9688" x="242.5864" y="489.2589">&lt;JSON&gt;</text></g><!--entity conversion--><g id="elem_conversion"><rect fill="#F1F1F1" height="78.8906" rx="2.5" ry="2.5" style="stroke:#181818;stroke-width:0.5;" width="118.4902" x="366.32" y="423.67"/><rect fill="#F1F1F1" height="10" style="stroke:#181818;stroke-width:0.5;" width="15" x="464.8102" y="428.67"/><rect fill="#F1F1F1" height="2" style="stroke:#181818;stroke-width:0.5;" width="4" x="462.8102" y="430.67"/><rect fill="#F1F1F1" height="2" style="stroke:#181818;stroke-width:0.5;" width="4" x="462.8102" y="434.67"/><text fill="#000000" font-family="sans-serif" font-size="14" lengthAdjust="spacing" textLength="78.4902" x="381.32" y="456.6651">Conversion</text><text fill="#000000" font-family="sans-serif" font-size="14" lengthAdjust="spacing" textLength="40.6055" x="400.2624" y="472.962">Script</text><text fill="#000000" font-family="sans-serif" font-size="14" lengthAdjust="spacing" textLength="71.9893" x="384.5705" y="489.2589">&lt;Python&gt;</text></g><!--entity streamlit--><g id="elem_streamlit"><rect fill="#F1F1F1" height="78.8906" rx="2.5" ry="2.5" style="stroke:#181818;stroke-width:0.5;" width="111.9893" x="369.57" y="7"/><rect fill="#F1F1F1" height="10" style="stroke:#181818;stroke-width:0.5;" width="15" x="461.5593" y="12"/><rect fill="#F1F1F1" height="2" style="stroke:#181818;stroke-width:0.5;" width="4" x="459.5593" y="14"/><rect fill="#F1F1F1" height="2" style="stroke:#181818;stroke-width:0.5;" width="4" x="459.5593" y="18"/><text fill="#000000" font-family="sans-serif" font-size="14" lengthAdjust="spacing" textLength="64.2305" x="388.4494" y="39.9951">Streamlit</text><text fill="#000000" font-family="sans-serif" font-size="14" lengthAdjust="spacing" textLength="63.1094" x="389.0099" y="56.292">Frontend</text><text fill="#000000" font-family="sans-serif" font-size="14" lengthAdjust="spacing" textLength="71.9893" x="384.57" y="72.5889">&lt;Python&gt;</text></g><!--entity TEST--><g id="elem_TEST"><rect fill="#F1F1F1" height="46.2969" rx="2.5" ry="2.5" style="stroke:#181818;stroke-width:0.5;" width="74.8359" x="516.15" y="23.29"/><rect fill="#F1F1F1" height="10" style="stroke:#181818;stroke-width:0.5;" width="15" x="570.9859" y="28.29"/><rect fill="#F1F1F1" height="2" style="stroke:#181818;stroke-width:0.5;" width="4" x="568.9859" y="30.29"/><rect fill="#F1F1F1" height="2" style="stroke:#181818;stroke-width:0.5;" width="4" x="568.9859" y="34.29"/><text fill="#000000" font-family="sans-serif" font-size="14" lengthAdjust="spacing" textLength="34.8359" x="531.15" y="56.2851">TEST</text></g><!--link client to streamlit--><g id="link_client_streamlit"><path d="M335.19,46.56 C344.97,46.56 351.18,46.56 363.43,46.56 " fill="none" id="client-to-streamlit" style="stroke:#181818;stroke-width:1.0;"/><polygon fill="#181818" points="369.43,46.56,360.43,42.56,364.43,46.56,360.43,50.56,369.43,46.56" style="stroke:#181818;stroke-width:1.0;"/></g><!--link streamlit to kafka--><g id="link_streamlit_kafka"><path d="M425.57,86.24 C425.57,112.7 425.57,140.21 425.57,160.7 " fill="none" id="streamlit-to-kafka" style="stroke:#181818;stroke-width:1.0;"/><polygon fill="#181818" points="425.57,166.7,429.57,157.7,425.57,161.7,421.57,157.7,425.57,166.7" style="stroke:#181818;stroke-width:1.0;"/><text fill="#000000" font-family="sans-serif" font-size="13" lengthAdjust="spacing" textLength="33.4395" x="391.57" y="122.5369">REST</text></g><!--link kafka to ml--><g id="link_kafka_ml"><path d="M455.68,185.56 C479.12,185.56 507.69,185.56 507.69,185.56 C507.69,185.56 507.69,251.19 507.69,291.49 " fill="none" id="kafka-to-ml" style="stroke:#181818;stroke-width:1.0;"/><polygon fill="#181818" points="507.69,297.49,511.69,288.49,507.69,292.49,503.69,288.49,507.69,297.49" style="stroke:#181818;stroke-width:1.0;"/></g><!--link kafka to hdfs--><g id="link_kafka_hdfs"><path d="M435.46,203.78 C435.46,228.72 435.46,267.22 435.46,294.59 " fill="none" id="kafka-to-hdfs" style="stroke:#181818;stroke-width:1.0;"/><polygon fill="#181818" points="435.46,300.59,439.46,291.59,435.46,295.59,431.46,291.59,435.46,300.59" style="stroke:#181818;stroke-width:1.0;"/></g><!--link kafka to mlPrep--><g id="link_kafka_mlPrep"><path d="M415.67,203.84 C415.67,234.27 415.67,291.56 415.67,291.56 C415.67,291.56 390.58,291.56 357.18,291.56 " fill="none" id="kafka-to-mlPrep" style="stroke:#181818;stroke-width:1.0;"/><polygon fill="#181818" points="351.18,291.56,360.18,295.56,356.18,291.56,360.18,287.56,351.18,291.56" style="stroke:#181818;stroke-width:1.0;"/></g><!--link hdfs to ml--><g id="link_hdfs_ml"><path d="M465.09,324.56 C475.77,324.56 481.5,324.56 492.79,324.56 " fill="none" id="hdfs-to-ml" style="stroke:#181818;stroke-width:1.0;"/><polygon fill="#181818" points="498.79,324.56,489.79,320.56,493.79,324.56,489.79,328.56,498.79,324.56" style="stroke:#181818;stroke-width:1.0;"/></g><!--reverse link mlPrep to hdfs--><g id="link_mlPrep_hdfs"><path d="M357.25,316.56 C369.31,316.56 375.27,316.56 385.96,316.56 " fill="none" id="mlPrep-backto-hdfs" style="stroke:#181818;stroke-width:1.0;"/><polygon fill="#181818" points="351.25,316.56,360.25,320.56,356.25,316.56,360.25,312.56,351.25,316.56" style="stroke:#181818;stroke-width:1.0;"/></g><!--link mlPrep to hdfs--><g id="link_mlPrep_hdfs"><path d="M351.25,332.56 C363.31,332.56 369.27,332.56 379.96,332.56 " fill="none" id="mlPrep-to-hdfs" style="stroke:#181818;stroke-width:1.0;"/><polygon fill="#181818" points="385.96,332.56,376.96,328.56,380.96,332.56,376.96,336.56,385.96,332.56" style="stroke:#181818;stroke-width:1.0;"/></g><!--link dataset2 to conversionSim--><g id="link_dataset2_conversionSim"><path d="M166.6,185.56 C177.76,185.56 183.24,185.56 194.41,185.56 " fill="none" id="dataset2-to-conversionSim" style="stroke:#181818;stroke-width:1.0;"/><polygon fill="#181818" points="200.41,185.56,191.41,181.56,195.41,185.56,191.41,189.56,200.41,185.56" style="stroke:#181818;stroke-width:1.0;"/><text fill="#000000" font-family="sans-serif" font-size="13" lengthAdjust="spacing" textLength="32.043" x="167.5" y="198.6269">JSON</text></g><!--link conversionSim to kafka--><g id="link_conversionSim_kafka"><path d="M360.7,185.56 C373.15,185.56 379.29,185.56 389.64,185.56 " fill="none" id="conversionSim-to-kafka" style="stroke:#181818;stroke-width:1.0;"/><polygon fill="#181818" points="395.64,185.56,386.64,181.56,390.64,185.56,386.64,189.56,395.64,185.56" style="stroke:#181818;stroke-width:1.0;"/><text fill="#000000" font-family="sans-serif" font-size="13" lengthAdjust="spacing" textLength="29.8848" x="363.67" y="198.6269">Avro</text></g><!--link dataset1 to conversion--><g id="link_dataset1_conversion"><path d="M331.63,463.56 C342.82,463.56 348.64,463.56 359.98,463.56 " fill="none" id="dataset1-to-conversion" style="stroke:#181818;stroke-width:1.0;"/><polygon fill="#181818" points="365.98,463.56,356.98,459.56,360.98,463.56,356.98,467.56,365.98,463.56" style="stroke:#181818;stroke-width:1.0;"/><text fill="#000000" font-family="sans-serif" font-size="13" lengthAdjust="spacing" textLength="32.043" x="332.8" y="476.6269">JSON</text></g><!--reverse link hdfs to conversion--><g id="link_hdfs_conversion"><path d="M425.57,353.78 C425.57,374.45 425.57,398.92 425.57,423.36 " fill="none" id="hdfs-backto-conversion" style="stroke:#181818;stroke-width:1.0;"/><polygon fill="#181818" points="425.57,347.78,421.57,356.78,425.57,352.78,429.57,356.78,425.57,347.78" style="stroke:#181818;stroke-width:1.0;"/></g><!--SRC=[VLBBRi8m4BpxArQSG5KES4GL4eMYggKKDVJ6nN8sOCMn8zkXvUzh9o5nIjGSadtCZ7V7CHcN1TKq1y4bsck1eBGzAsBQHe8fBOKzu8zT2dwIEKeBpBrG1oYmkaH2cLKQLe9x33N0geWmbHTA-jfefUG5jU5AmiDHnZml1RK-YvdcXJtAn_tLdIyNeuhVeXqob5bJImrQc1tbUCil67LA4wVn6d_iQeMa1iuSMGXa7c1Wz4RJZ5Rzp4U1yijw4_lwEKbDd_E-XIVACfJ9do5p4KxcO7kDHOSTxxLYQ8pIapkYHmwjDNMqhntuT72TwR2bpj3_NGnfiTL8Sy4TUgELkywxnSmD4T0Ep_61aFfU8TByTBRH8a2s4KI9-fQkLpayXqzFh69mHUTP6rTMDrd3QPpndGPTXm9JsxNhJojnksfVwFquS_06abwjcxsPRtdHYhZdvd1VvKu2eh9e3lu5]--></g></svg>